<svg width="16" height="13" viewBox="0 0 16 13" fill="none" xmlns="http://www.w3.org/2000/svg">
<path id="Vector" fill-rule="evenodd" clip-rule="evenodd" d="M11.5099 0.553223C12.5115 0.553223 13.4751 0.898824 14.1839 1.51895C14.8935 2.13777 15.2901 2.97244 15.2901 3.84622V8.99764C15.2901 10.8169 13.5946 12.2906 11.5099 12.2906H4.13101C2.04634 12.2906 0.351562 10.8169 0.351562 8.99764V3.84622C0.351562 2.02692 2.03887 0.553223 4.13101 0.553223H11.5099ZM12.6983 4.81782L12.758 4.76565C12.9365 4.57655 12.9365 4.30268 12.7498 4.11357C12.646 4.01641 12.5033 3.95707 12.3547 3.94403C12.1978 3.93686 12.0484 3.98316 11.9356 4.07445L8.56775 6.42193C8.13454 6.73558 7.51384 6.73558 7.0739 6.42193L3.71273 4.07445C3.48044 3.92447 3.15926 3.94403 2.96581 4.12009C2.76414 4.29616 2.74173 4.57655 2.91277 4.77217L3.01062 4.85694L6.40914 7.17182C6.82742 7.45874 7.33458 7.61524 7.86564 7.61524C8.39522 7.61524 8.91134 7.45874 9.32887 7.17182L12.6983 4.81782Z" fill="#095195"/>
</svg>
