<svg width="12" height="13" viewBox="0 0 12 13" fill="none" xmlns="http://www.w3.org/2000/svg">
<path id="Vector" fill-rule="evenodd" clip-rule="evenodd" d="M0.211914 5.42877C0.211914 2.4838 2.86587 0.103516 6.07607 0.103516C9.29536 0.103516 11.9493 2.4838 11.9493 5.42877C11.9493 6.91274 11.3673 8.29044 10.4093 9.4582C9.35246 10.7463 8.04989 11.8686 6.58361 12.7495C6.24805 12.9531 5.94523 12.9684 5.57688 12.7495C4.10234 11.8686 2.79973 10.7463 1.75193 9.4582C0.793248 8.29044 0.211914 6.91274 0.211914 5.42877ZM4.14342 5.59458C4.14342 6.5811 5.01162 7.35705 6.07607 7.35705C7.14127 7.35705 8.01785 6.5811 8.01785 5.59458C8.01785 4.61568 7.14127 3.80198 6.07607 3.80198C5.01162 3.80198 4.14342 4.61568 4.14342 5.59458Z" fill="#095195"/>
</svg>
