<svg width="16" height="16" viewBox="0 0 16 16" fill="none" xmlns="http://www.w3.org/2000/svg">
<path id="Vector" fill-rule="evenodd" clip-rule="evenodd" d="M6.06165 0.740787C6.22821 0.7169 6.3956 0.766167 6.52878 0.872156C6.66561 0.979639 6.75121 1.13489 6.76981 1.30881C6.80917 1.66037 6.55552 1.97834 6.20446 2.0179C3.78315 2.2881 1.90119 4.17429 1.62893 6.60312C1.59248 6.92853 1.31948 7.17412 0.993673 7.17412C0.969099 7.17412 0.945271 7.17262 0.920773 7.16964C0.750399 7.15096 0.598698 7.06664 0.491514 6.93226C0.385152 6.79797 0.336825 6.63074 0.356171 6.45981C0.695351 3.42937 3.04078 1.07742 6.06165 0.740787ZM6.01511 3.34159C6.37073 3.27591 6.69728 3.50282 6.76495 3.8499C6.83263 4.19698 6.60504 4.53585 6.25913 4.60378C5.21769 4.8068 4.41355 5.61293 4.20979 6.65791V6.65866C4.15175 6.95945 3.8869 7.17815 3.58193 7.17815C3.54099 7.17815 3.50014 7.17442 3.45846 7.16695C3.11256 7.09756 2.88497 6.75942 2.95264 6.41159C3.25686 4.85084 4.45822 3.64538 6.01511 3.34159ZM4.83348 10.5125C4.49631 10.3181 4.11538 10.0985 3.63496 10.2007C3.1998 10.2925 1.71655 11.4964 1.31037 11.9137C1.04409 12.1869 0.896049 12.469 0.87297 12.7512C0.83286 13.8581 2.33695 15.1218 2.61069 15.2793C2.97445 15.5413 3.39766 15.6734 3.873 15.6734C4.35873 15.6734 4.90033 15.5353 5.49092 15.2599C8.69546 13.9223 13.5909 9.1236 14.8852 5.94389C15.4223 4.76007 15.426 3.78377 14.8941 3.05004C14.6821 2.70594 13.4733 1.26761 12.391 1.31313C12.1031 1.33777 11.8234 1.48556 11.549 1.75427C11.1339 2.16106 9.96006 3.64867 9.86931 4.08531C9.76889 4.57049 9.98907 4.95638 10.1847 5.29525C10.2264 5.3681 10.2827 5.45455 10.3442 5.54925C10.578 5.9087 10.8892 6.38712 10.7791 6.69254C9.98982 8.63025 8.16664 10.3208 6.22806 11.1151C5.92832 11.224 5.45014 10.9106 5.09184 10.6759C4.99855 10.6147 4.91332 10.5588 4.84154 10.5171L4.83348 10.5125Z" fill="#095195"/>
</svg>
