<svg width="16" height="16" viewBox="0 0 16 16" fill="none" xmlns="http://www.w3.org/2000/svg">
<g id="linkedin 1" clip-path="url(#clip0_5243_729)">
<path id="Vector" d="M15.8968 4.47492V10.8677C15.894 13.338 13.8917 15.3402 11.4214 15.3422H5.02816C2.55839 15.3388 0.557076 13.3375 0.554199 10.8677V4.47444C0.557076 2.00467 2.55839 0.00335631 5.02768 0H11.421C13.8917 0.00239736 15.8935 2.00419 15.8964 4.47444V4.47492H15.8968ZM14.6181 4.47492C14.6162 2.70998 13.1859 1.27971 11.4214 1.27779H5.02816C3.2637 1.28019 1.83391 2.70998 1.83199 4.47444V10.8677C1.83391 12.6322 3.2637 14.0624 5.02768 14.0648H11.421C13.1859 14.0629 14.6162 12.6327 14.6181 10.8682V4.47492ZM6.30691 6.71213V11.5069C6.29396 11.8502 6.01299 12.1235 5.66777 12.1235C5.32255 12.1235 5.0411 11.8502 5.02864 11.5078V11.5069V6.71213C5.02864 6.35876 5.31488 6.07252 5.66825 6.07252C6.02162 6.07252 6.30787 6.35876 6.30787 6.71213H6.30691ZM12.0611 8.6305V11.5069C12.0481 11.8502 11.7671 12.1235 11.4219 12.1235C11.0767 12.1235 10.7953 11.8502 10.7828 11.5078V11.5069V8.6305C10.7828 8.27713 10.4965 7.99089 10.1432 7.99089H9.50355C9.15066 7.99137 8.86489 8.27761 8.86489 8.6305V11.5069C8.85195 11.8502 8.57098 12.1235 8.22576 12.1235C7.88054 12.1235 7.59909 11.8502 7.58662 11.5078V11.5069V6.71213C7.58662 6.35876 7.87287 6.07252 8.22624 6.07252C8.57961 6.07252 8.86585 6.35876 8.86585 6.71213V6.82433C9.06531 6.75385 9.2806 6.71213 9.50451 6.71213H10.1441C11.2028 6.71357 12.0606 7.57183 12.0615 8.6305H12.0611ZM6.62768 4.15511C6.62768 4.68493 6.19807 5.11453 5.66825 5.11453C5.13844 5.11453 4.70883 4.68493 4.70883 4.15511C4.70883 3.62529 5.13844 3.19568 5.66825 3.19568C6.19807 3.19568 6.62768 3.62529 6.62768 4.15511Z" fill="#A3A3A3"/>
</g>
<defs>
<clipPath id="clip0_5243_729">
<rect width="15.3431" height="15.3431" fill="white" transform="translate(0.554199)"/>
</clipPath>
</defs>
</svg>
