<svg width="17" height="17" viewBox="0 0 17 17" fill="none" xmlns="http://www.w3.org/2000/svg">
<path d="M14.0942 2.38145C15.5639 3.84305 16.4737 5.86665 16.4737 8.10246C16.4737 8.11008 16.4737 8.11769 16.4737 8.12531V8.12429C16.4737 10.2941 15.6294 12.3339 14.0942 13.8681C12.6285 15.3353 10.6029 16.2431 8.36556 16.2431C8.36048 16.2431 8.3554 16.2431 8.35033 16.2431H8.35083C6.27038 16.2431 4.19042 15.4516 2.60698 13.8681C1.13776 12.4065 0.228516 10.3829 0.228516 8.14714C0.228516 8.13901 0.228516 8.13089 0.228516 8.12277V8.12378C0.228516 5.95397 1.07278 3.91464 2.608 2.38095C4.0696 0.911222 6.09269 0.00146484 8.329 0.00146484C8.33662 0.00146484 8.34474 0.00146484 8.35236 0.00146484H8.35134C10.5212 0.00146484 12.5605 0.845731 14.0952 2.38095L14.0942 2.38145ZM13.1372 12.9117C14.3617 11.6928 15.1197 10.0057 15.1197 8.14155C15.1197 8.13546 15.1197 8.12988 15.1197 8.12378V8.1248C15.1197 6.31696 14.416 4.61777 13.1372 3.33893C11.9188 2.11442 10.2318 1.35645 8.3681 1.35645C8.362 1.35645 8.35642 1.35645 8.35033 1.35645H8.35134C8.34626 1.35645 8.34068 1.35645 8.33459 1.35645C6.47091 1.35645 4.7839 2.11442 3.56547 3.33893L3.56497 3.33944C2.34045 4.55786 1.58249 6.24436 1.58249 8.10805C1.58249 8.11414 1.58249 8.12023 1.58249 8.12632V8.12531C1.58249 9.93365 2.28613 11.6334 3.56497 12.9122C6.20387 15.5511 10.4983 15.5511 13.1372 12.9122V12.9117ZM10.0221 4.70103C10.1688 4.64061 10.3389 4.60558 10.5176 4.60558C10.8907 4.60558 11.2283 4.7584 11.4705 5.00513C11.8548 5.39045 11.9721 5.94636 11.7746 6.45302L9.70125 11.7836C9.49463 12.3131 9.00624 12.6467 8.44323 12.6467H8.3818C7.79188 12.6264 7.30096 12.2268 7.14307 11.6851L7.14053 11.6755L6.60849 9.86613L4.80014 9.33459C4.24881 9.17417 3.84927 8.68274 3.82896 8.09485V8.09282C3.82794 8.072 3.82693 8.04763 3.82693 8.02326C3.82693 7.45517 4.18179 6.96983 4.68186 6.77641L4.69099 6.77336L10.0221 4.70103ZM10.512 5.9626L5.18141 8.03596L6.95929 8.55835L7.39285 8.1248C7.51368 8.01006 7.67766 7.9395 7.85788 7.9395C8.23204 7.9395 8.53512 8.24258 8.53512 8.61674C8.53512 8.79696 8.46455 8.96043 8.35033 9.08177L8.35083 9.08126L7.91728 9.51482L8.43968 11.2932L10.512 5.9626Z" fill="#A3A3A3"/>
</svg>
