<svg width="16" height="16" viewBox="0 0 16 16" fill="none" xmlns="http://www.w3.org/2000/svg">
<path d="M15.0544 5.11501V11.1313C15.0517 13.4562 13.1676 15.3403 10.8427 15.3425H4.82549C2.50101 15.3398 0.616965 13.4562 0.614258 11.1318V5.11591C0.616514 2.79098 2.50011 0.906479 4.82504 0.90332H10.8423C13.1672 0.906479 15.0508 2.79052 15.0535 5.11501V5.11546L15.0544 5.11501ZM13.8504 5.11501C13.8486 3.45434 12.5034 2.10866 10.8427 2.1064H4.82549C3.16483 2.10866 1.81914 3.45479 1.81779 5.11546V11.1318C1.82005 12.792 3.16528 14.1372 4.82549 14.1395H10.8427C12.5029 14.1372 13.8481 12.792 13.8504 11.1318V5.11501ZM11.4438 11.1313C11.4429 12.1277 10.6351 12.9355 9.63872 12.9359H7.23211C5.57189 12.9337 4.22666 11.5884 4.2244 9.92823V5.1141C4.22576 4.11816 5.03262 3.31084 6.02857 3.30948C6.92163 3.30948 7.66487 3.96156 7.80883 4.81356H8.43519C9.43204 4.81356 10.2403 5.62133 10.2412 6.61818C10.2407 7.61548 9.43249 8.42325 8.43519 8.42325H7.83319V9.32534H9.63917C10.636 9.32624 11.4438 10.1345 11.4438 11.1313ZM10.2398 11.1313C10.2398 10.7992 9.97085 10.5298 9.63872 10.5293H7.8341C7.16938 10.5293 6.63057 9.99051 6.63011 9.32624V7.82262C6.63011 7.49003 6.89952 7.22062 7.23211 7.22062H8.43609C8.76867 7.22062 9.03808 6.95122 9.03808 6.61863C9.03808 6.28605 8.76867 6.01664 8.43609 6.01664H7.23211C6.89997 6.01664 6.63057 5.74768 6.63011 5.41555V5.11591C6.61342 4.79686 6.35078 4.5446 6.02902 4.5446C5.70727 4.5446 5.44463 4.79686 5.42794 5.11455V5.11591V9.92914C5.42884 10.9255 6.23616 11.7329 7.23256 11.7338H9.63917C9.9713 11.7338 10.2407 11.4648 10.2412 11.1327L10.2398 11.1313Z" fill="#095195"/>
</svg>
