<svg width="15" height="16" viewBox="0 0 15 16" fill="none" xmlns="http://www.w3.org/2000/svg">
<g clip-path="url(#clip0_3661_731)">
<path d="M14.6081 5.11403V11.1308C14.6054 13.4557 12.7209 15.3402 10.396 15.342H4.37875C2.05427 15.3389 0.170676 13.4553 0.167969 11.1308V5.11358C0.170676 2.7891 2.05427 0.905503 4.3783 0.902344H10.3955C12.7209 0.9046 14.6049 2.78864 14.6076 5.11358V5.11403H14.6081ZM6.78582 14.1398H7.9898V11.7323C7.99025 11.4006 8.25921 11.1317 8.59089 11.1312H10.5458L10.8969 9.92771H8.59044C8.2583 9.92726 7.98935 9.65785 7.98935 9.32572V7.52109C7.98935 6.85728 8.52907 6.31711 9.19333 6.31711H10.998V5.11538H8.59134C7.59449 5.11583 6.78672 5.9236 6.78582 6.92V9.32707C6.78582 9.65965 6.51641 9.92906 6.18382 9.92906H4.9821V11.1326H6.18563C6.51821 11.1326 6.78762 11.402 6.78762 11.7346L6.78582 14.1398ZM13.4046 5.11403C13.4028 3.45291 12.0566 2.10678 10.396 2.10497H4.37875C2.71809 2.10723 1.3724 3.45291 1.3706 5.11358V11.1308C1.3724 12.7915 2.71809 14.1376 4.3783 14.1398H5.58274V12.3334H4.37875C4.04662 12.3334 3.77721 12.0645 3.77676 11.7323V9.32572C3.77676 8.99313 4.04617 8.72372 4.37875 8.72372H5.58274V6.92C5.58454 5.25934 6.93022 3.91366 8.59044 3.91185H11.5986C11.9312 3.91185 12.2006 4.18126 12.2006 4.51384V6.92C12.2006 7.25259 11.9312 7.522 11.5986 7.522H9.19198V8.72553H11.2985C11.7967 8.72643 12.2006 9.13077 12.2006 9.62942C12.2006 9.73276 12.1834 9.83204 12.1514 9.9241L12.1532 9.91778L11.5747 11.9025C11.4993 12.1547 11.2696 12.3352 10.9975 12.3357H9.19198V14.1412H10.396C12.0566 14.1389 13.4023 12.7933 13.4041 11.1326L13.4046 5.11403Z" fill="#A3A3A3"/>
</g>
<defs>
<clipPath id="clip0_3661_731">
<rect width="14.4406" height="14.4406" fill="white" transform="translate(0.167969 0.902344)"/>
</clipPath>
</defs>
</svg>
