<svg width="17" height="16" viewBox="0 0 17 16" fill="none" xmlns="http://www.w3.org/2000/svg">
<path d="M12.2854 9.17399C12.5007 9.38976 12.5994 9.68463 12.5572 9.98574C12.5155 10.2864 12.3396 10.5429 12.0739 10.691L10.7573 11.4218C10.5785 11.5239 10.3646 11.5838 10.1364 11.5838C9.86405 11.5838 9.61185 11.4985 9.40519 11.3527L9.40903 11.3556L8.47022 10.7054C8.25734 10.5592 8.055 10.4082 7.8541 10.2461L7.84403 10.2379C7.13297 9.67121 6.5087 9.04693 5.96018 8.35937L5.94196 8.33588C5.77846 8.13306 5.62647 7.9288 5.47783 7.71304L4.83007 6.77615C4.6867 6.57334 4.60136 6.32113 4.60136 6.04879C4.60136 5.82056 4.66177 5.60624 4.76678 5.42116L4.76342 5.4274L5.49414 4.11172C5.64133 3.8461 5.89785 3.66965 6.19848 3.62746C6.49911 3.58526 6.79494 3.68499 7.00927 3.89884L8.06603 4.9556C8.68886 5.57843 8.68886 6.59203 8.06603 7.21487L7.30702 7.97483C7.58943 8.29368 7.89102 8.59623 8.21083 8.87864L8.97079 8.11963C9.59363 7.4968 10.6072 7.4968 11.2301 8.11963L12.2854 9.17399ZM7.1627 5.85796L6.40705 5.10231L5.88107 6.04735L6.51301 6.96027L7.1627 6.31058C7.22072 6.25257 7.2562 6.1725 7.2562 6.08427C7.2562 5.99605 7.22024 5.91598 7.1627 5.85796ZM11.0833 9.77861L10.3267 9.022C10.2687 8.96446 10.1891 8.92898 10.1009 8.92898C10.0127 8.92898 9.93309 8.96446 9.87508 9.022L9.22539 9.67169L10.1383 10.3046L11.0833 9.77861ZM13.9434 2.24034C16.932 5.23225 16.932 10.0989 13.9434 13.0898C12.5558 14.4813 10.637 15.3424 8.51673 15.3424C8.51625 15.3424 8.51529 15.3424 8.51433 15.3424C6.9968 15.3424 5.58284 14.8999 4.39471 14.1365L4.42491 14.1548L2.21694 15.2427C2.09707 15.3012 1.95611 15.3352 1.80747 15.3352C1.5428 15.3352 1.30355 15.2273 1.13094 15.0533C0.956888 14.8802 0.849486 14.6409 0.849486 14.3767C0.849486 14.2281 0.883529 14.0876 0.943942 13.962L0.941545 13.9678L2.02947 11.7593C1.28485 10.5995 0.842773 9.18358 0.842773 7.66509C0.842773 5.54631 1.70343 3.62842 3.0939 2.24226C6.08437 -0.74629 10.9515 -0.747249 13.942 2.24226L13.9434 2.24034ZM13.0406 12.1865C15.53 9.6947 15.53 5.63788 13.0396 3.14511C10.5459 0.655687 6.49 0.655687 3.99722 3.14511C2.83786 4.30064 2.12105 5.8992 2.12105 7.66509C2.12105 9.04358 2.55833 10.3204 3.30151 11.3637L3.28808 11.3441C3.42281 11.5349 3.44199 11.7842 3.33891 11.9952L2.51182 13.6729L4.18949 12.8448C4.27196 12.8031 4.36929 12.7787 4.47238 12.7787C4.60999 12.7787 4.73801 12.8223 4.84205 12.8966L4.84014 12.8952C5.86429 13.6254 7.14064 14.0627 8.51961 14.0627C10.286 14.0627 11.8845 13.3454 13.0396 12.186L13.0406 12.1865Z" fill="#A3A3A3"/>
</svg>
