<svg width="8" height="11" viewBox="0 0 8 11" fill="none" xmlns="http://www.w3.org/2000/svg">
<path fill-rule="evenodd" clip-rule="evenodd" d="M3.9385 6.72849L3.99805 6.7285L4.13004 6.72886C5.25101 6.73486 7.877 6.83675 7.877 8.56899C7.877 10.175 5.7203 10.3896 4.0427 10.3977L3.74696 10.3976C2.62599 10.3916 0 10.2898 0 8.55799C0 6.91799 2.2475 6.72849 3.9385 6.72849ZM3.9385 7.47849C1.823 7.47849 0.75 7.84199 0.75 8.55799C0.75 9.28099 1.823 9.64799 3.9385 9.64799C6.054 9.64799 7.127 9.28449 7.127 8.56899C7.127 7.84499 6.054 7.47849 3.9385 7.47849ZM3.9385 0.500488C5.405 0.500488 6.5975 1.69349 6.5975 3.15949C6.5975 4.62549 5.405 5.81849 3.9385 5.81849H3.923C3.2135 5.81599 2.5485 5.53749 2.05 5.03549C1.551 4.53299 1.2775 3.86599 1.27998 3.15799C1.27998 1.69349 2.4725 0.500488 3.9385 0.500488ZM3.9385 1.25049C2.8865 1.25049 2.02998 2.10699 2.02998 3.15949C2.028 3.66899 2.224 4.14649 2.5815 4.50699C2.9395 4.86699 3.4165 5.06649 3.9245 5.06849L3.9385 5.43899V5.06849C4.991 5.06849 5.8475 4.21199 5.8475 3.15949C5.8475 2.10699 4.991 1.25049 3.9385 1.25049Z" fill="#095195"/>
</svg>
