<svg width="16" height="15" viewBox="0 0 16 15" fill="none" xmlns="http://www.w3.org/2000/svg">
<path d="M5.88276 3.83902C5.63188 3.83902 5.42383 3.63097 5.42383 3.38009V1.54438C5.42383 1.2935 5.63188 1.08545 5.88276 1.08545C6.13364 1.08545 6.34169 1.2935 6.34169 1.54438V3.38009C6.34169 3.63097 6.13364 3.83902 5.88276 3.83902Z" fill="#095195"/>
<path d="M10.7778 3.83902C10.5269 3.83902 10.3188 3.63097 10.3188 3.38009V1.54438C10.3188 1.2935 10.5269 1.08545 10.7778 1.08545C11.0287 1.08545 11.2367 1.2935 11.2367 1.54438V3.38009C11.2367 3.63097 11.0287 3.83902 10.7778 3.83902Z" fill="#095195"/>
<path d="M6.18856 9.19405C6.10902 9.19405 6.02947 9.1757 5.95604 9.1451C5.87649 9.11451 5.8153 9.07166 5.75411 9.01659C5.64397 8.90033 5.57666 8.74736 5.57666 8.58214C5.57666 8.5026 5.59502 8.42304 5.62561 8.34962C5.65621 8.27619 5.69904 8.20889 5.75411 8.1477C5.8153 8.09262 5.87649 8.04978 5.95604 8.01918C6.17633 7.9274 6.45168 7.97636 6.62302 8.1477C6.73316 8.26396 6.80047 8.42305 6.80047 8.58214C6.80047 8.61886 6.79435 8.6617 6.78823 8.70453C6.78211 8.74125 6.76987 8.77796 6.75152 8.81467C6.73928 8.85138 6.72092 8.88809 6.69645 8.92481C6.67809 8.9554 6.64749 8.98599 6.62302 9.01659C6.50675 9.12673 6.34766 9.19405 6.18856 9.19405Z" fill="#095195"/>
<path d="M8.33017 9.19433C8.25062 9.19433 8.17107 9.17598 8.09764 9.14538C8.01809 9.11479 7.95691 9.07194 7.89571 9.01687C7.78557 8.90061 7.71826 8.74764 7.71826 8.58242C7.71826 8.50287 7.73662 8.42332 7.76722 8.34989C7.79781 8.27647 7.84064 8.20916 7.89571 8.14797C7.95691 8.0929 8.01809 8.05006 8.09764 8.01946C8.31793 7.92156 8.59329 7.97664 8.76462 8.14797C8.87476 8.26424 8.94207 8.42333 8.94207 8.58242C8.94207 8.61914 8.93595 8.66198 8.92983 8.70481C8.92371 8.74152 8.91148 8.77823 8.89312 8.81495C8.88088 8.85166 8.86253 8.88837 8.83805 8.92509C8.81969 8.95568 8.78909 8.98627 8.76462 9.01687C8.64836 9.12701 8.48926 9.19433 8.33017 9.19433Z" fill="#095195"/>
<path d="M10.4718 9.19433C10.3922 9.19433 10.3127 9.17598 10.2392 9.14538C10.1597 9.11479 10.0985 9.07194 10.0373 9.01687C10.0128 8.98627 9.98836 8.95568 9.96389 8.92509C9.93941 8.88837 9.92105 8.85166 9.90882 8.81495C9.89046 8.77823 9.87822 8.74152 9.8721 8.70481C9.86598 8.66198 9.85986 8.61914 9.85986 8.58242C9.85986 8.42333 9.92717 8.26424 10.0373 8.14797C10.0985 8.0929 10.1597 8.05006 10.2392 8.01946C10.4656 7.92156 10.7349 7.97664 10.9062 8.14797C11.0164 8.26424 11.0837 8.42333 11.0837 8.58242C11.0837 8.61914 11.0776 8.66198 11.0714 8.70481C11.0653 8.74152 11.0531 8.77823 11.0347 8.81495C11.0225 8.85166 11.0041 8.88837 10.9797 8.92509C10.9613 8.95568 10.9307 8.98627 10.9062 9.01687C10.79 9.12701 10.6309 9.19433 10.4718 9.19433Z" fill="#095195"/>
<path d="M6.18856 11.3353C6.10902 11.3353 6.02947 11.3169 5.95604 11.2864C5.88261 11.2558 5.8153 11.2129 5.75411 11.1578C5.64397 11.0416 5.57666 10.8825 5.57666 10.7234C5.57666 10.6438 5.59502 10.5643 5.62561 10.4909C5.65621 10.4113 5.69904 10.344 5.75411 10.2889C5.98052 10.0625 6.39661 10.0625 6.62302 10.2889C6.73316 10.4052 6.80047 10.5643 6.80047 10.7234C6.80047 10.8825 6.73316 11.0416 6.62302 11.1578C6.50675 11.268 6.34766 11.3353 6.18856 11.3353Z" fill="#095195"/>
<path d="M8.33017 11.3353C8.17107 11.3353 8.01198 11.268 7.89571 11.1578C7.78557 11.0416 7.71826 10.8825 7.71826 10.7234C7.71826 10.6438 7.73662 10.5643 7.76722 10.4909C7.79781 10.4113 7.84064 10.344 7.89571 10.2889C8.12212 10.0625 8.53821 10.0625 8.76462 10.2889C8.81969 10.344 8.86252 10.4113 8.89312 10.4909C8.92371 10.5643 8.94207 10.6438 8.94207 10.7234C8.94207 10.8825 8.87476 11.0416 8.76462 11.1578C8.64836 11.268 8.48926 11.3353 8.33017 11.3353Z" fill="#095195"/>
<path d="M10.4718 11.3362C10.3127 11.3362 10.1536 11.2689 10.0373 11.1587C9.98224 11.1036 9.93941 11.0363 9.90882 10.9568C9.87822 10.8834 9.85986 10.8038 9.85986 10.7243C9.85986 10.6447 9.87822 10.5652 9.90882 10.4917C9.93941 10.4122 9.98224 10.3449 10.0373 10.2898C10.1781 10.1491 10.3922 10.0818 10.588 10.1246C10.6309 10.1307 10.6676 10.1429 10.7043 10.1613C10.741 10.1735 10.7777 10.1919 10.8144 10.2164C10.845 10.2348 10.8756 10.2653 10.9062 10.2898C11.0164 10.4061 11.0837 10.5652 11.0837 10.7243C11.0837 10.8834 11.0164 11.0425 10.9062 11.1587C10.79 11.2689 10.6309 11.3362 10.4718 11.3362Z" fill="#095195"/>
<path d="M13.5312 6.34169H3.12885C2.87797 6.34169 2.66992 6.13364 2.66992 5.88276C2.66992 5.63188 2.87797 5.42383 3.12885 5.42383H13.5312C13.7821 5.42383 13.9902 5.63188 13.9902 5.88276C13.9902 6.13364 13.7821 6.34169 13.5312 6.34169Z" fill="#095195"/>
<path d="M10.7779 14.2415H5.88271C3.64926 14.2415 2.36426 12.9565 2.36426 10.7231V5.52187C2.36426 3.28842 3.64926 2.00342 5.88271 2.00342H10.7779C13.0114 2.00342 14.2964 3.28842 14.2964 5.52187V10.7231C14.2964 12.9565 13.0114 14.2415 10.7779 14.2415ZM5.88271 2.92128C4.13266 2.92128 3.28211 3.77182 3.28211 5.52187V10.7231C3.28211 12.4731 4.13266 13.3237 5.88271 13.3237H10.7779C12.528 13.3237 13.3785 12.4731 13.3785 10.7231V5.52187C13.3785 3.77182 12.528 2.92128 10.7779 2.92128H5.88271Z" fill="#095195"/>
</svg>
