<svg width="15" height="15" viewBox="0 0 15 15" fill="none" xmlns="http://www.w3.org/2000/svg">
<path d="M11.21 8.12285H9.17843C7.65479 8.12285 6.88379 7.26006 6.88379 5.55285V3.79668C6.88379 3.17254 6.95722 2.27916 7.60584 1.78963C8.15043 1.38578 8.93367 1.35518 10.0902 1.69173C11.6077 2.1323 12.8743 3.39894 13.3149 4.91647C13.6515 6.06685 13.6209 6.8562 13.217 7.39468C12.7275 8.04942 11.8341 8.12285 11.21 8.12285ZM8.73786 2.37706C8.48698 2.37706 8.29117 2.42601 8.16267 2.52392C7.92403 2.70137 7.80777 3.11747 7.80777 3.79668V5.55897C7.80777 6.92963 8.334 7.21111 9.18455 7.21111H11.2161C11.8892 7.21111 12.3053 7.09485 12.4888 6.8562C12.703 6.57473 12.6846 6.01178 12.446 5.1857C12.0911 3.98025 11.0509 2.93389 9.84541 2.58511C9.3926 2.44437 9.02546 2.37706 8.73786 2.37706Z" fill="#095195"/>
<path d="M6.77378 14.2422C6.44947 14.2422 6.11904 14.2178 5.78861 14.1627C3.28592 13.7588 1.24828 11.7273 0.844423 9.22461C0.324304 6.00599 2.39866 2.97094 5.57445 2.32233C5.82533 2.27337 6.06397 2.43247 6.11904 2.67723C6.16799 2.92811 6.0089 3.16675 5.76414 3.22183C3.07788 3.77254 1.31559 6.34254 1.76228 9.07775C2.10495 11.1949 3.8244 12.9144 5.94159 13.2571C8.68904 13.6976 11.2529 11.9292 11.7975 9.23073C11.8465 8.97985 12.0912 8.82075 12.336 8.86971C12.5869 8.91866 12.746 9.16342 12.697 9.40818C12.1157 12.2658 9.61914 14.2422 6.77378 14.2422Z" fill="#095195"/>
</svg>
